<?xml version="1.0" encoding="utf-8"?>
<!-- Generator: Adobe Illustrator 28.3.0, SVG Export Plug-In . SVG Version: 6.00 Build 0)  -->
<svg version="1.1" id="Layer_1" xmlns="http://www.w3.org/2000/svg" xmlns:xlink="http://www.w3.org/1999/xlink" x="0px" y="0px"
	 viewBox="0 0 721.8 244.2" style="enable-background:new 0 0 721.8 244.2;" xml:space="preserve">
<style type="text/css">
	.st0{fill:#2B7FBF;}
	.st1{fill:#F15A24;}
	.st2{fill:#FFFFFF;stroke:#FFFFFF;stroke-miterlimit:10;}
</style>
<g>
	<g>
		<path class="st0" d="M246.1,67.8c0-21.5,10.6-33.6,25.7-33.6s25.7,12.1,25.7,33.6S287,102,271.8,102S246.1,89.7,246.1,67.8
			L246.1,67.8z M285.6,67.8c0-15-5.4-23.5-13.8-23.5s-13.8,8.5-13.8,23.5c0,16.2,5.4,24.6,13.8,24.6S285.6,84.1,285.6,67.8z
			 M266,100.7l8.5-0.8c1.8-0.2,3.6,0.7,4.5,2.2c2.5,4.4,7.3,6.2,12.6,6.2c0.4,0,0.8,0,1.2-0.1c2.3-0.2,4.4,1.3,4.9,3.5l0,0.2
			c0.6,2.6-1.1,5.1-3.7,5.6c-1.2,0.2-2.5,0.3-3.9,0.3C277.8,117.9,269.6,110.6,266,100.7L266,100.7z"/>
		<path class="st0" d="M309,75.9V40c0-2.5,2.1-4.6,4.6-4.6h2.5c2.5,0,4.6,2.1,4.6,4.6v36.7c0,10.6,4.4,15.2,11.3,15.2
			s11.5-4.6,11.5-15.2V40c0-2.5,2.1-4.6,4.6-4.6h2c2.5,0,4.6,2.1,4.6,4.6v35.8c0,17.8-8.4,26.2-22.7,26.2S308.9,93.7,309,75.9
			L309,75.9z"/>
		<path class="st0" d="M376.7,35.4h32.7c2.5,0,4.6,2.1,4.6,4.6v0.6c0,2.5-2.1,4.6-4.6,4.6h-21.1c-2.5,0-4.6,2.1-4.6,4.6v7.5
			c0,2.5,2.1,4.6,4.6,4.6h16.5c2.5,0,4.6,2.1,4.6,4.6v0.6c0,2.5-2.1,4.6-4.6,4.6h-16.5c-2.5,0-4.6,2.1-4.6,4.6v10.1
			c0,2.5,2.1,4.6,4.6,4.6h22.1c2.5,0,4.6,2.1,4.6,4.6v0.6c0,2.5-2.1,4.6-4.6,4.6h-33.7c-2.5,0-4.6-2.1-4.6-4.6V40
			C372.1,37.5,374.2,35.4,376.7,35.4z"/>
		<path class="st0" d="M427.7,92.5l3.9-4.6c1.5-1.8,4.1-2.2,6.1-0.8c4.4,3,9.6,4.9,15,4.9c7.6,0,11.6-3.3,11.6-7.9
			c0-5.8-4.5-7.4-10.9-10.1l-9-3.9c-6.9-2.7-14-7.8-14-17.3c0-10.4,9.4-18.4,22.7-18.4c6.2,0,12.2,1.9,17.1,5.2
			c2.2,1.5,2.7,4.6,1,6.7l-0.4,0.5c-1.4,1.8-4,2.2-5.9,1.1c-3.5-2.1-7.3-3.3-12.3-3.3c-6.2,0-10.4,2.8-10.4,7.6
			c0,5.1,5.2,7,11.1,9.2l8.6,3.7c8.3,3.2,14.2,8.2,14.2,17.6c0,10.6-9,19.5-24.2,19.5C442.8,102,434.1,98.5,427.7,92.5L427.7,92.5z"
			/>
		<path class="st0" d="M501.4,45.2H490c-2.5,0-4.6-2.1-4.6-4.6V40c0-2.5,2.1-4.6,4.6-4.6h43.6c2.5,0,4.6,2.1,4.6,4.6v0.6
			c0,2.5-2.1,4.6-4.6,4.6h-11.4c-2.5,0-4.6,2.1-4.6,4.6v46.4c0,2.5-2.1,4.6-4.6,4.6h-2.4c-2.5,0-4.6-2.1-4.6-4.6V49.8
			C506,47.3,504,45.2,501.4,45.2z"/>
		<path class="st0" d="M554.9,91.1h6.6c2.5,0,4.6-2.1,4.6-4.6V49.8c0-2.5-2.1-4.6-4.6-4.6h-6.6c-2.5,0-4.6-2.1-4.6-4.6V40
			c0-2.5,2.1-4.6,4.6-4.6h33.9c2.5,0,4.6,2.1,4.6,4.6v0.6c0,2.5-2.1,4.6-4.6,4.6h-6.6c-2.5,0-4.6,2.1-4.6,4.6v36.6
			c0,2.5,2.1,4.6,4.6,4.6h6.6c2.5,0,4.6,2.1,4.6,4.6v0.6c0,2.5-2.1,4.6-4.6,4.6h-33.9c-2.5,0-4.6-2.1-4.6-4.6v-0.6
			C550.3,93.1,552.3,91.1,554.9,91.1z"/>
		<path class="st0" d="M606.1,67.8c0-21.5,10.5-33.6,25.7-33.6s25.7,12.1,25.7,33.6S647,102,631.8,102S606.1,89.7,606.1,67.8z
			 M645.6,67.8c0-15-5.4-23.5-13.8-23.5s-13.8,8.5-13.8,23.5s5.4,24.1,13.8,24.1S645.6,83.2,645.6,67.8z"/>
		<path class="st0" d="M673.8,35.4h4.7c1.8,0,3.4,1,4.2,2.6l16,34.1l5.9,14h0.3c-0.5-6.7-1.6-15-1.6-22.3V40c0-2.5,2.1-4.6,4.6-4.6
			h1.9c2.5,0,4.6,2.1,4.6,4.6v56.2c0,2.5-2.1,4.6-4.6,4.6h-4.7c-1.8,0-3.4-1-4.2-2.6l-16-34.1L679,50.1h-0.3
			c0.5,7,1.6,14.8,1.6,22.1v24c0,2.5-2.1,4.6-4.6,4.6h-1.9c-2.5,0-4.6-2.1-4.6-4.6V40C669.2,37.5,671.3,35.4,673.8,35.4z"/>
	</g>
	<g>
		<path class="st0" d="M258.1,127.4h8.9c2.1,0,3.9,1.4,4.4,3.4l8.2,29.5c2.1,7.4,3.6,13.9,5.8,21.2h0.4c2.2-7.4,3.7-13.8,5.8-21.2
			l8.1-29.5c0.6-2,2.4-3.4,4.4-3.4h2.2c3.1,0,5.3,3,4.4,6l-17.4,56.2c-0.6,1.9-2.4,3.2-4.4,3.2h-7.1c-2,0-3.8-1.3-4.4-3.2
			L258.1,127.4L258.1,127.4z"/>
		<path class="st0" d="M338.4,127.4h10.4c2,0,3.8,1.3,4.4,3.2l18.2,56.2c1,3-1.3,6-4.4,6h-2.6c-2.1,0-3.9-1.4-4.4-3.3l-8.9-31.4
			c-2-6.9-4.1-14.3-5.8-21.6h-0.4c-1.8,7.2-3.8,14.6-5.8,21.6l-9,31.4c-0.6,2-2.4,3.3-4.4,3.3h-2.1c-3.1,0-5.3-3-4.4-6L338.4,127.4
			L338.4,127.4z M334.4,166h21.5c2.5,0,4.6,2.1,4.6,4.6l0,0c0,2.5-2.1,4.6-4.6,4.6h-21.5c-2.5,0-4.6-2.1-4.6-4.6l0,0
			C329.8,168,331.9,166,334.4,166z"/>
		<path class="st0" d="M382.4,167.9V132c0-2.5,2.1-4.6,4.6-4.6h2.5c2.5,0,4.6,2.1,4.6,4.6v36.7c0,10.6,4.4,15.2,11.3,15.2
			s11.5-4.6,11.5-15.2V132c0-2.5,2.1-4.6,4.6-4.6h2c2.5,0,4.6,2.1,4.6,4.6v35.8c0,17.9-8.4,26.1-22.7,26.1S382.4,185.7,382.4,167.9
			L382.4,167.9z"/>
		<path class="st0" d="M447.3,127.4h7c2.5,0,4.6,2.1,4.6,4.6v46.4c0,2.5,2.1,4.6,4.6,4.6h21.5c2.5,0,4.6,2.1,4.6,4.6v0.6
			c0,2.5-2.1,4.6-4.6,4.6h-33c-2.5,0-4.6-2.1-4.6-4.6L447.3,127.4L447.3,127.4z"/>
		<path class="st0" d="M514.9,137.2h-11.4c-2.5,0-4.6-2.1-4.6-4.6V132c0-2.5,2.1-4.6,4.6-4.6h43.6c2.5,0,4.6,2.1,4.6,4.6v0.6
			c0,2.5-2.1,4.6-4.6,4.6h-11.4c-2.5,0-4.6,2.1-4.6,4.6v46.4c0,2.5-2.1,4.6-4.6,4.6h-2.4c-2.5,0-4.6-2.1-4.6-4.6v-46.4
			C519.5,139.3,517.4,137.2,514.9,137.2z"/>
	</g>
</g>
<path class="st1" d="M117.8,20.8l11.9-11.5c20.9-20.1,55.7-5.7,56.3,23.3l0.3,16.6l16.6,0.3c29,0.6,43.4,35.4,23.3,56.3l-11.5,11.9
	l11.5,11.9c20.1,20.9,5.7,55.7-23.3,56.3l-16.6,0.3l-0.3,16.6c-0.6,29-35.4,43.4-56.3,23.3l-11.9-11.5l-11.9,11.5
	C85,246.4,50.1,232,49.6,203l-0.3-16.6l-16.6-0.3c-29-0.6-43.4-35.4-23.3-56.3l11.5-11.9L9.3,105.9C-10.8,85,3.7,50.1,32.7,49.6
	l16.6-0.3l0.3-16.6c0.6-29,35.4-43.4,56.3-23.3L117.8,20.8L117.8,20.8z"/>
<g>
	<path class="st2" d="M46.4,107.4c0-27.9,13.7-43.7,33.4-43.7s33.4,15.7,33.4,43.7s-13.7,44.5-33.4,44.5S46.4,135.9,46.4,107.4z
		 M97.7,107.4c0-19.5-7.1-30.5-17.9-30.5S62,87.9,62,107.4c0,21.1,7.1,32,17.9,32S97.7,128.5,97.7,107.4z M72.3,150.1l11.2-1
		c2.4-0.2,4.7,1,5.9,3.1c3.2,5.6,9.4,7.9,16.2,7.9c0.5,0,1,0,1.5-0.1c3-0.3,5.8,1.7,6.5,4.7v0c0.8,3.5-1.5,6.8-5,7.4
		c-1.5,0.2-3,0.4-4.8,0.4C87.6,172.5,76.9,163,72.3,150.1L72.3,150.1z"/>
	<path class="st2" d="M130.8,65.3h3.2c2.7,0,5.1,1.8,5.9,4.5l10.6,38.2c2.8,9.6,4.6,18,7.5,27.6h0.5c2.8-9.6,4.9-18,7.5-27.6
		l10.6-38.2c0.7-2.6,3.1-4.5,5.9-4.5h2.5c4.1,0,7.1,4,5.8,7.9L168.2,146c-0.8,2.6-3.2,4.3-5.8,4.3h-9c-2.7,0-5-1.7-5.8-4.3
		l-22.6-72.8C123.7,69.3,126.7,65.3,130.8,65.3z"/>
</g>
</svg>
