<svg xmlns="http://www.w3.org/2000/svg" xmlns:xlink="http://www.w3.org/1999/xlink" viewBox="0 0 280 250" preserveAspectRatio="xMidYMid" style="display: block; shape-rendering: auto; background: transparent;" width="280" height="250"><style type="text/css">
  .ld-text text {
    text-anchor: middle;
    dominant-baseline: middle;
    font-size: 40px;
    opacity: 0;
    user-select: none;
    pointer-events: none;
  }
</style>
<g style="transform-origin:140px 125px;transform:scale(1)" class="ld-text">
<g transform="translate(140,125)">
  <g transform="scale(0.5000) translate(0,0)"><g class="path" style="opacity: 1; transform-origin: -209.44px 21.75px; transform: matrix3d(1, 0, 0, 0, 0, 1, 0, 0, 0, 0, 1, 0, 0, 0, 0, 1); animation: 1s linear -0.612857s infinite normal forwards running animate-q845a7brx4; transform-box: view-box;"><path d="M28.80-6.61L28.80-6.61Q38.24-6.61 44.36 0.59Q50.48 7.79 50.48 18.91L50.48 18.91Q50.48 31.87 42.48 41.31L42.48 41.31L53.04 53.87L45.12 59.71L35.92 46.91Q30.32 50.27 24.08 50.27L24.08 50.27Q14.88 50.27 8.64 42.87Q2.40 35.47 2.40 24.59L2.40 24.59Q2.40 10.99 9.84 2.19Q17.28-6.61 28.80-6.61 zM39.60 23.39L39.60 23.39Q39.60 3.15 26.32 3.15L26.32 3.15Q20.24 3.15 16.76 7.67Q13.28 12.19 13.28 21.19Q13.28 30.19 17 35.99Q20.72 41.79 27.20 41.79L27.20 41.79Q29.60 41.79 31.68 40.83L31.68 40.83L22.16 27.47L27.68 23.63L37.28 35.07Q39.60 30.19 39.60 23.39" style="fill: rgb(0, 153, 229);" transform="translate(-237.160,-24.694)"></path></g><g class="path" style="opacity: 1; transform-origin: -161.56px 16.74px; transform: matrix3d(1, 0, 0, 0, 0, 1, 0, 0, 0, 0, 1, 0, 0, 0, 0, 1); animation: 1s linear -0.565714s infinite normal forwards running animate-q845a7brx4; transform-box: view-box;"><path d="M68.64 49.39L68.64 49.39Q64.32 49.39 61.64 46.55Q58.96 43.71 58.96 39.07L58.96 39.07L59.44 29.87L58.56 10.67L69.28 8.67L68.24 32.99Q68.24 36.43 69.48 38.03Q70.72 39.63 73.44 39.63Q76.16 39.63 80.96 36.91L80.96 36.91L80.96 32.11L80.08 11.07L90.88 9.07L89.92 29.07L90 35.63Q90 40.75 92.64 45.95L92.64 45.95L84.32 49.63Q81.68 44.43 81.12 41.31L81.12 41.31Q73.92 49.39 68.64 49.39" style="fill: rgb(255, 76, 76);" transform="translate(-237.160,-24.694)"></path></g><g class="path" style="opacity: 1; transform-origin: -124.24px 17.16px; transform: matrix3d(1, 0, 0, 0, 0, 1, 0, 0, 0, 0, 1, 0, 0, 0, 0, 1); animation: 1s linear -0.518571s infinite normal forwards running animate-q845a7brx4; transform-box: view-box;"><path d="M114.24 41.23L114.24 41.23Q116.56 41.23 119.12 40.03Q121.68 38.83 123.12 37.63L123.12 37.63L124.56 36.43L128.24 40.91Q127.44 42.27 125.76 44.03Q124.08 45.79 122.36 47.03Q120.64 48.27 117.80 49.27Q114.96 50.27 111.92 50.27L111.92 50.27Q105.44 50.27 101.36 45.35Q97.28 40.43 97.28 32.67L97.28 32.67Q97.28 22.91 102.96 15.55Q108.64 8.19 116.24 8.19L116.24 8.19Q122.08 8.19 125.32 11.47Q128.56 14.75 128.56 20.67L128.56 20.67Q128.56 24.19 127.36 28.67L127.36 28.67L125.76 30.35L105.76 32.19Q107.12 41.23 114.24 41.23 zM114.24 16.43L114.24 16.43Q110.72 16.43 108.32 19.27Q105.92 22.11 105.52 26.51L105.52 26.51L119.12 24.83Q119.36 22.99 119.36 21.79L119.36 21.79Q119.36 16.43 114.24 16.43" style="fill: rgb(52, 191, 73);" transform="translate(-237.160,-24.694)"></path></g><g class="path" style="opacity: 1; transform-origin: -91.08px 17.16px; transform: matrix3d(1, 0, 0, 0, 0, 1, 0, 0, 0, 0, 1, 0, 0, 0, 0, 1); animation: 1s linear -0.471429s infinite normal forwards running animate-q845a7brx4; transform-box: view-box;"><path d="M147.60 41.95L147.60 41.95Q151.76 41.95 151.76 38.27L151.76 38.27Q151.76 36.99 149.96 35.87Q148.16 34.75 145.56 33.63Q142.96 32.51 140.36 31.11Q137.76 29.71 135.96 27.23Q134.16 24.75 134.16 21.55L134.16 21.55Q134.16 16.19 138.88 12.19Q143.60 8.19 149.76 8.19L149.76 8.19Q152.64 8.19 155.40 8.87Q158.16 9.55 160.72 10.99L160.72 10.99L155.36 20.75Q154.80 20.27 153.92 19.55Q153.04 18.83 150.60 17.67Q148.16 16.51 146.28 16.51Q144.40 16.51 143.40 17.35Q142.40 18.19 142.40 19.67Q142.40 21.15 145.16 22.63Q147.92 24.11 151.20 25.35Q154.48 26.59 157.24 29.43Q160 32.27 160 36.19L160 36.19Q160 41.79 155.40 46.03Q150.80 50.27 144.80 50.27L144.80 50.27Q140.96 50.27 137.64 48.59Q134.32 46.91 132.88 45.23L132.88 45.23L131.44 43.55L137.76 36.19Q138.24 36.83 139.12 37.79Q140 38.75 142.60 40.35Q145.20 41.95 147.60 41.95" style="fill: rgb(0, 153, 229);" transform="translate(-237.160,-24.694)"></path></g><g class="path" style="opacity: 1; transform-origin: -60.04px 14.79px; transform: matrix3d(1, 0, 0, 0, 0, 1, 0, 0, 0, 0, 1, 0, 0, 0, 0, 1); animation: 1s linear -0.424286s infinite normal forwards running animate-q845a7brx4; transform-box: view-box;"><path d="M165.52 10.67L170.16 10.67L170.16 1.95L180.96-0.13L179.92 10.67L189.60 10.67L188.72 17.23L179.60 17.23L179.20 33.95Q179.20 37.71 179.92 38.95Q180.64 40.19 182.56 40.19Q184.48 40.19 187.68 39.31L187.68 39.31L188.16 44.99Q182.88 49.39 178.88 49.39Q174.88 49.39 172.32 46.47Q169.76 43.55 169.76 38.83L169.76 38.83L170.24 29.87L170.16 17.23L164.64 17.23L165.52 10.67" style="fill: rgb(255, 76, 76);" transform="translate(-237.160,-24.694)"></path></g><g class="path" style="opacity: 1; transform-origin: -36.4px 16.55px; transform: matrix3d(1, 0, 0, 0, 0, 1, 0, 0, 0, 0, 1, 0, 0, 0, 0, 1); animation: 1s linear -0.377143s infinite normal forwards running animate-q845a7brx4; transform-box: view-box;"><path d="M195.44 10.67L206.16 8.67L205.20 28.59L206.08 47.39L195.36 49.39L196.32 29.95L195.44 10.67" style="fill: rgb(52, 191, 73);" transform="translate(-237.160,-24.694)"></path></g><g class="path" style="opacity: 1; transform-origin: -36.04px -24.17px; transform: matrix3d(1, 0, 0, 0, 0, 1, 0, 0, 0, 0, 1, 0, 0, 0, 0, 1); animation: 1s linear -0.33s infinite normal forwards running animate-q845a7brx4; transform-box: view-box;"><path d="M194.88-3.05Q194.88-5.73 196.96-7.85Q199.04-9.97 201.76-9.97Q204.48-9.97 205.92-8.49Q207.36-7.01 207.36-4.05Q207.36-1.09 205.32 1.03Q203.28 3.15 200.60 3.15Q197.92 3.15 196.40 1.39Q194.88-0.37 194.88-3.05" style="fill: rgb(0, 153, 229);" transform="translate(-237.160,-24.694)"></path></g><g class="path" style="opacity: 1; transform-origin: -7.56px 17.16px; transform: matrix3d(1, 0, 0, 0, 0, 1, 0, 0, 0, 0, 1, 0, 0, 0, 0, 1); animation: 1s linear -0.282857s infinite normal forwards running animate-q845a7brx4; transform-box: view-box;"><path d="M212.56 32.67Q212.56 22.43 218.08 15.31Q223.60 8.19 231 8.19Q238.40 8.19 242.52 12.99Q246.64 17.79 246.64 25.71L246.64 25.71Q246.64 36.27 241.32 43.27Q236 50.27 227.92 50.27L227.92 50.27Q221.28 50.27 216.92 45.27Q212.56 40.27 212.56 32.67L212.56 32.67 zM237.68 29.87L237.68 29.87Q237.68 18.27 229.76 18.27L229.76 18.27Q221.52 18.27 221.52 29.15L221.52 29.15Q221.52 34.83 223.84 38.03Q226.16 41.23 229.96 41.23Q233.76 41.23 235.72 38.31Q237.68 35.39 237.68 29.87" style="fill: rgb(255, 76, 76);" transform="translate(-237.160,-24.694)"></path></g><g class="path" style="opacity: 1; transform-origin: 32.44px 16.87px; transform: matrix3d(1, 0, 0, 0, 0, 1, 0, 0, 0, 0, 1, 0, 0, 0, 0, 1); animation: 1s linear -0.235714s infinite normal forwards running animate-q845a7brx4; transform-box: view-box;"><path d="M276.72 29.15Q276.72 23.63 275.76 21.79Q274.80 19.95 271.28 19.95Q267.76 19.95 263.28 22.75L263.28 22.75L263.28 28.59L264.16 47.39L253.44 49.39L254.40 29.95Q254.08 19.23 252.64 10.75L252.64 10.75L262.32 8.67Q262.88 13.31 263.12 17.71L263.12 17.71Q264.32 16.11 265.84 14.55Q267.36 12.99 270.64 11.03Q273.92 9.07 277.56 9.07Q281.20 9.07 283.68 11.91Q286.16 14.75 286.16 19.63L286.16 19.63L285.68 28.59L286.56 47.79L275.76 49.79L276.72 29.15" style="fill: rgb(52, 191, 73);" transform="translate(-237.160,-24.694)"></path></g><g class="path" style="opacity: 1; transform-origin: 89.84px 13.88px; transform: matrix3d(1, 0, 0, 0, 0, 1, 0, 0, 0, 0, 1, 0, 0, 0, 0, 1); animation: 1s linear -0.188571s infinite normal forwards running animate-q845a7brx4; transform-box: view-box;"><path d="M322.88 24.59L326.72 39.39L327.68 39.39L331.68 25.63L340.08-6.29L349.76-4.85L340.24 26.91L334 48.75L319.20 49.79L313.52 28.43L304.24-4.29L315.60-6.29L322.88 24.59" style="fill: rgb(0, 153, 229);" transform="translate(-237.160,-24.694)"></path></g><g class="path" style="opacity: 1; transform-origin: 132.36px 16.65px; transform: matrix3d(1, 0, 0, 0, 0, 1, 0, 0, 0, 0, 1, 0, 0, 0, 0, 1); animation: 1s linear -0.141429s infinite normal forwards running animate-q845a7brx4; transform-box: view-box;"><path d="M363.60 49.39Q358.88 49.39 355.88 46.39Q352.88 43.39 352.88 38.31Q352.88 33.23 357.52 29.51Q362.16 25.79 368.80 25.79L368.80 25.79L374.24 25.79L374.24 24.43Q374.24 20.51 372.64 19.07Q371.04 17.63 366.64 17.63L366.64 17.63Q364.80 17.63 362.28 18.39Q359.76 19.15 356.64 20.75L356.64 20.75L354.32 14.43Q357.76 12.03 362.68 10.11Q367.60 8.19 370.80 8.19L370.80 8.19Q383.36 8.19 383.36 20.35L383.36 20.35L383.36 36.03Q383.36 40.51 386.16 46.03L386.16 46.03L377.68 49.63Q375.68 45.79 374.72 42.75L374.72 42.75Q370.32 49.39 363.60 49.39L363.60 49.39 zM366.96 41.23L366.96 41.23Q370.16 41.23 374.24 37.95L374.24 37.95L374.24 32.59Q370 31.63 367.36 31.63L367.36 31.63Q362.32 31.63 362.32 36.11L362.32 36.11Q362.32 38.43 363.60 39.83Q364.88 41.23 366.96 41.23" style="fill: rgb(255, 76, 76);" transform="translate(-237.160,-24.694)"></path></g><g class="path" style="opacity: 1; transform-origin: 172.52px 16.74px; transform: matrix3d(1, 0, 0, 0, 0, 1, 0, 0, 0, 0, 1, 0, 0, 0, 0, 1); animation: 1s linear -0.0942857s infinite normal forwards running animate-q845a7brx4; transform-box: view-box;"><path d="M402.72 49.39L402.72 49.39Q398.40 49.39 395.72 46.55Q393.04 43.71 393.04 39.07L393.04 39.07L393.52 29.87L392.64 10.67L403.36 8.67L402.32 32.99Q402.32 36.43 403.56 38.03Q404.80 39.63 407.52 39.63Q410.24 39.63 415.04 36.91L415.04 36.91L415.04 32.11L414.16 11.07L424.96 9.07L424 29.07L424.08 35.63Q424.08 40.75 426.72 45.95L426.72 45.95L418.40 49.63Q415.76 44.43 415.20 41.31L415.20 41.31Q408 49.39 402.72 49.39" style="fill: rgb(52, 191, 73);" transform="translate(-237.160,-24.694)"></path></g><g class="path" style="opacity: 1; transform-origin: 202.24px 12.31px; transform: matrix3d(1, 0, 0, 0, 0, 1, 0, 0, 0, 0, 1, 0, 0, 0, 0, 1); animation: 1s linear -0.0471429s infinite normal forwards running animate-q845a7brx4; transform-box: view-box;"><path d="M433.92-10.53L444.88-12.53L443.84 28.59L444.72 47.39L433.92 49.39L434.88 29.95L433.92-10.53" style="fill: rgb(0, 153, 229);" transform="translate(-237.160,-24.694)"></path></g><g class="path" style="opacity: 1; transform-origin: 227.08px 14.79px; transform: matrix3d(1, 0, 0, 0, 0, 1, 0, 0, 0, 0, 1, 0, 0, 0, 0, 1); animation: 1s linear 0s infinite normal forwards running animate-q845a7brx4; transform-box: view-box;"><path d="M452.64 10.67L457.28 10.67L457.28 1.95L468.08-0.13L467.04 10.67L476.72 10.67L475.84 17.23L466.72 17.23L466.32 33.95Q466.32 37.71 467.04 38.95Q467.76 40.19 469.68 40.19Q471.60 40.19 474.80 39.31L474.80 39.31L475.28 44.99Q470 49.39 466 49.39Q462 49.39 459.44 46.47Q456.88 43.55 456.88 38.83L456.88 38.83L457.36 29.87L457.28 17.23L451.76 17.23L452.64 10.67" style="fill: rgb(255, 76, 76);" transform="translate(-237.160,-24.694)"></path></g></g><text dy="0.35em" fill="#0099e5" font-family="Acme" font-size="40">Question Vault</text>
</g>
</g><style type="text/css">@keyframes animate-q845a7brx4 { 0.00% {transform: translate(0.00px,0.00px) rotate(0.00deg) scale(1.00, 1.00) skew(0deg, 0.00deg) ;opacity: 1.00;}2.00% {animation-timing-function: cubic-bezier(0.20,0.39,0.50,0.97);transform: translate(0.00px,-1.08px) rotate(0.00deg) ;}36.00% {animation-timing-function: cubic-bezier(0.50,0.03,0.80,0.61);transform: translate(0.00px,-10.00px) rotate(0.00deg) ;}72.00% {transform: translate(0.00px,0.00px) rotate(0.00deg) ;}74.00% {animation-timing-function: cubic-bezier(0.23,0.43,0.48,0.91);transform: translate(0.00px,0.00px) rotate(0.00deg) scale(1.00, 0.95) ;}86.00% {animation-timing-function: cubic-bezier(0.52,0.09,0.77,0.57);transform: translate(0.00px,0.00px) rotate(0.00deg) scale(1.00, 0.80) ;}100.00% {animation-timing-function: cubic-bezier(0.52,0.09,0.77,0.57);transform: translate(0.00px,0.00px) rotate(0.00deg) scale(1.00, 1.00) ;} }</style><!-- [ldio] generated by https://loading.io --></svg>